#!OML:ASF F:\VICON\USERDATA\INSTALL\rory3\rory3.ASF
:FULLY-SPECIFIED
:DEGREES
421
root 0.859093 17.7782 -16.9289 3.58401 -0.697892 0.124661
lowerback 4.33143 -0.308768 -0.389043
upperback -1.15451 -0.34816 2.47223
thorax -3.60319 -0.136715 2.79683
lowerneck -19.0543 -3.43036 -10.1442
upperneck 15.8047 -3.33017 7.38306
head 8.343 -1.44071 3.737
rclavicle 9.29318e-015 -1.43125e-014
rhumerus -39.5266 -15.6639 -72.6679
rradius 40.1875
rwrist 0.325375
rhand -17.1991 17.1649
rfingers 7.12502
rthumb 9.04324 -12.6212
lclavicle 9.29318e-015 -1.43125e-014
lhumerus -38.5433 9.64621 80.7078
lradius 39.0972
lwrist 0.128238
lhand -17.4362 22.2492
lfingers 7.12502
lthumb 8.8144 52.0451
rfemur -4.15046 3.25504 24.9777
rtibia 17.341
rfoot -11.143 -11.0557
rtoes 8.9075
lfemur -8.12706 -4.9882 -19.3772
ltibia 21.4451
lfoot -12.7875 5.29345
ltoes -0.596394
422
root 0.862999 17.7788 -16.9292 3.64994 -0.648536 0.164379
lowerback 4.28872 -0.334225 -0.445427
upperback -1.24 -0.384331 2.46799
thorax -3.66542 -0.152337 2.82734
lowerneck -18.7456 -3.38791 -10.1249
upperneck 15.5904 -3.30266 7.39613
head 8.2144 -1.42897 3.73919
rclavicle 7.25564e-015 1.03368e-014
rhumerus -39.8233 -15.527 -72.6402
rradius 40.5114
rwrist -0.091977
rhand -17.4707 17.1279
rfingers 7.12502
rthumb 8.78112 -12.6695
lclavicle 7.25564e-015 1.03368e-014
lhumerus -38.6073 9.72259 80.6478
lradius 39.1029
lwrist 0.0408328
lhand -17.6806 22.5599
lfingers 7.12502
lthumb 8.57853 52.3656
rfemur -4.26884 3.21632 24.9495
rtibia 17.4119
rfoot -11.0421 -11.2532
rtoes 7.00126
lfemur -8.10495 -5.0029 -19.429
ltibia 21.3699
lfoot -12.8268 5.25816
ltoes -0.771793
423
root 0.864778 17.7746 -16.9271 3.70075 -0.583807 0.205059
lowerback 4.24243 -0.370151 -0.541894
upperback -1.2928 -0.43685 2.47943
thorax -3.69051 -0.175522 2.89751
lowerneck -18.6467 -3.37286 -10.1436
upperneck 15.5008 -3.28942 7.42726
head 8.16676 -1.42175 3.75352
rclavicle 1.55549e-014 -1.43125e-014
rhumerus -39.9639 -15.4804 -72.6276
rradius 40.726
rwrist -0.325962
rhand -17.7152 17.3789
rfingers 7.12502
rthumb 8.54514 -12.4282
lclavicle 1.55549e-014 -1.43125e-014
lhumerus -38.5786 9.63925 80.6726
lradius 39.0367
lwrist 0.289243
lhand -17.8729 22.5422
lfingers 7.12502
lthumb 8.39303 52.3554
rfemur -4.33466 3.07573 24.9373
rtibia 17.4767
rfoot -10.8878 -11.3436
rtoes 4.92583
lfemur -8.07114 -4.98195 -19.4719
ltibia 21.2786
lfoot -12.8505 5.18986
ltoes -1.00774
424
root 0.867666 17.7748 -16.9243 3.64603 -0.63923 0.202688
lowerback 4.23119 -0.365872 -0.545269
upperback -1.23112 -0.432678 2.47526
thorax -3.6205 -0.174579 2.89391
lowerneck -18.6982 -3.39724 -10.0882
upperneck 15.4476 -3.31942 7.37076
head 8.15879 -1.43683 3.72016
rclavicle 4.47266e-015 1.19271e-014
rhumerus -39.8177 -15.645 -72.6014
rradius 40.6477
rwrist -0.309142
rhand -17.7536 17.7016
rfingers 7.12502
rthumb 8.50809 -12.107
lclavicle 4.47266e-015 1.19271e-014
lhumerus -38.4972 9.66141 80.655
lradius 39.0498
lwrist 0.376887
lhand -17.8345 22.7973
lfingers 7.12502
lthumb 8.43005 52.6091
rfemur -4.27243 3.1227 24.9153
rtibia 17.5296
rfoot -10.9276 -11.1079
rtoes 6.75731
lfemur -8.03181 -4.9973 -19.4913
ltibia 21.2352
lfoot -12.7577 5.26618
ltoes -1.07318
425
root 0.874759 17.7767 -16.9211 3.54766 -0.810109 0.148468
lowerback 4.22728 -0.345459 -0.482265
upperback -1.16867 -0.402546 2.49046
thorax -3.55558 -0.161898 2.87121
lowerneck -18.717 -3.36987 -9.97806
upperneck 15.4344 -3.28909 7.26635
head 8.15092 -1.42585 3.6698
rclavicle -2.27608e-014 1.98785e-014
rhumerus -39.6485 -15.7039 -72.5799
rradius 40.4408
rwrist -0.230239
rhand -17.7049 17.8647
rfingers 7.12502
rthumb 8.55508 -11.942
lclavicle -2.27608e-014 1.98785e-014
lhumerus -38.4938 9.83377 80.5934
lradius 39.1071
lwrist 0.245957
lhand -17.6864 23.1958
lfingers 7.12502
lthumb 8.57301 53.0018
rfemur -4.21087 3.21019 24.9177
rtibia 17.6246
rfoot -11.1624 -11.0257
rtoes 7.73177
lfemur -7.89233 -4.96532 -19.48
ltibia 21.1814
lfoot -12.7115 5.41681
ltoes -1.07691
426
root 0.883416 17.7749 -16.9186 3.47487 -0.981726 0.106831
lowerback 4.2026 -0.311652 -0.440663
upperback -1.09006 -0.35632 2.50476
thorax -3.46293 -0.141061 2.85813
lowerneck -18.842 -3.34999 -9.88052
upperneck 15.4426 -3.25715 7.16875
head 8.16894 -1.41246 3.62418
rclavicle -4.22417e-015 -2.06736e-014
rhumerus -39.4663 -15.833 -72.5744
rradius 40.3429
rwrist -0.0995754
rhand -17.6406 17.9598
rfingers 7.12502
rthumb 8.6172 -11.8443
lclavicle -4.22417e-015 -2.06736e-014
lhumerus -38.3498 9.94814 80.5531
lradius 39.0702
lwrist 0.24092
lhand -17.5198 23.4948
lfingers 7.12502
lthumb 8.73373 53.2941
rfemur -4.16647 3.28605 24.9218
rtibia 17.6886
rfoot -11.2757 -10.9544
rtoes 7.88058
lfemur -7.75119 -5.06113 -19.4983
ltibia 21.1524
lfoot -12.6841 5.67004
ltoes -1.05563
427
root 0.890159 17.774 -16.9167 3.45953 -1.07782 0.072475
lowerback 4.22116 -0.270824 -0.388635
upperback -1.04873 -0.299984 2.49148
thorax -3.43391 -0.114792 2.81081
lowerneck -19.0845 -3.36759 -9.71226
upperneck 15.509 -3.27365 7.00262
head 8.2289 -1.42312 3.53765
rclavicle 1.635e-014 9.54166e-015
rhumerus -39.3969 -15.9802 -72.5887
rradius 40.4024
rwrist -0.0425646
rhand -17.5668 18.2507
rfingers 7.12502
rthumb 8.68842 -11.5505
lclavicle 1.635e-014 9.54166e-015
lhumerus -38.2199 9.98934 80.4914
lradius 39.0613
lwrist 0.19841
lhand -17.244 23.6403
lfingers 7.12502
lthumb 8.99986 53.4283
rfemur -4.13802 3.32209 24.918
rtibia 17.6978
rfoot -11.4234 -10.8568
rtoes 8.56671
lfemur -7.72397 -5.10696 -19.5015
ltibia 21.1599
lfoot -12.6748 5.80446
ltoes -1.12243
428
root 0.896953 17.7729 -16.9161 3.54999 -1.05476 0.0265011
lowerback 4.14605 -0.245288 -0.257906
upperback -1.0527 -0.261292 2.4343
thorax -3.39828 -0.0990917 2.67437
lowerneck -19.2622 -3.40942 -9.53033
upperneck 15.5243 -3.35086 6.92883
head 8.26719 -1.45304 3.47207
rclavicle 5.01931e-015 1.59028e-015
rhumerus -39.4398 -16.2526 -72.5898
rradius 40.504
rwrist 0.103882
rhand -17.524 18.3475
rfingers 7.12502
rthumb 8.72969 -11.452
lclavicle 5.01931e-015 1.59028e-015
lhumerus -38.209 9.80044 80.4525
lradius 39.2368
lwrist 0.085799
lhand -17.0679 23.8798
lfingers 7.12502
lthumb 9.16987 53.6605
rfemur -4.23099 3.10644 24.9392
rtibia 17.6884
rfoot -11.3149 -10.7898
rtoes 6.95472
lfemur -7.83192 -5.10665 -19.4688
ltibia 21.1796
lfoot -12.738 5.79034
ltoes -0.977362
429
root 0.901054 17.7731 -16.9168 3.66702 -1.11302 0.12362
lowerback 3.97531 -0.223077 -0.366251
upperback -1.10344 -0.240278 2.37136
thorax -3.3552 -0.0870545 2.66766
lowerneck -19.1204 -3.40121 -9.45985
upperneck 15.5038 -3.39026 7.01707
head 8.23948 -1.46075 3.48583
rclavicle -4.47266e-016 1.59028e-014
rhumerus -39.4615 -16.4458 -72.5849
rradius 40.4426
rwrist 0.279797
rhand -17.6369 18.1664
rfingers 7.12502
rthumb 8.62078 -11.6376
lclavicle -4.47266e-016 1.59028e-014
lhumerus -38.2927 9.66019 80.4131
lradius 39.3874
lwrist 0.0442422
lhand -17.0494 23.3061
lfingers 7.12502
lthumb 9.18766 53.0859
rfemur -4.36675 3.11943 24.8334
rtibia 17.674
rfoot -11.0642 -10.894
rtoes 5.26761
lfemur -7.95288 -5.00341 -19.5984
ltibia 21.2031
lfoot -12.7944 5.79941
ltoes -1.49487
430
root 0.904039 17.7735 -16.9152 3.56058 -1.363 0.163824
lowerback 4.01311 -0.181094 -0.506946
upperback -1.09549 -0.191196 2.38148
thorax -3.37035 -0.0595272 2.7544
lowerneck -18.938 -3.36191 -9.47193
upperneck 15.5126 -3.36248 7.07493
head 8.20953 -1.44584 3.51193
rclavicle 2.68359e-015 3.18055e-015
rhumerus -39.3851 -16.4065 -72.6056
rradius 40.3346
rwrist 0.393618
rhand -17.7176 17.9968
rfingers 7.12502
rthumb 8.54285 -11.8104
lclavicle 2.68359e-015 3.18055e-015
lhumerus -38.2772 9.78329 80.3423
lradius 39.2323
lwrist 0.0294103
lhand -17.1942 22.2562
lfingers 7.12502
lthumb 9.04794 52.0422
rfemur -4.24526 3.41028 24.7891
rtibia 17.645
rfoot -10.8878 -10.9361
rtoes 5.3024
lfemur -7.7206 -4.87309 -19.7032
ltibia 21.1952
lfoot -12.8711 5.98382
ltoes -1.87662
431
root 0.910398 17.7685 -16.9101 3.37483 -1.49338 0.0376448
lowerback 4.12688 -0.167194 -0.388336
upperback -0.969688 -0.16587 2.43646
thorax -3.306 -0.050228 2.74262
lowerneck -19.146 -3.39604 -9.58332
upperneck 15.5641 -3.37454 7.14697
head 8.26739 -1.44761 3.55367
rclavicle -9.54166e-015 -7.95139e-016
rhumerus -39.1973 -16.2551 -72.7044
rradius 40.3915
rwrist 0.296461
rhand -17.7196 17.9913
rfingers 7.12502
rthumb 8.54094 -11.816
lclavicle -9.54166e-015 -7.95139e-016
lhumerus -38.0822 9.87153 80.3741
lradius 39.0548
lwrist 0.12487
lhand -17.3962 22.3708
lfingers 7.12502
lthumb 8.853 52.1651
rfemur -4.02196 3.52863 24.9267
rtibia 17.6465
rfoot -10.9163 -10.9871
rtoes 5.29683
lfemur -7.3986 -4.8928 -19.6136
ltibia 21.1297
lfoot -12.8907 6.14068
ltoes -1.76666
